<svg width="24" height="24" viewBox="0 0 24 24" fill="none" xmlns="http://www.w3.org/2000/svg">
    <path fill-rule="evenodd" clip-rule="evenodd" d="M19.293 4.707L14 10.001H17C17.552 10.001 18 10.449 18 11.001C18 11.553 17.552 12.001 17 12.001H12C11.448 12.001 11 11.553 11 11.001V6.00098C11 5.44898 11.448 5.00098 12 5.00098C12.552 5.00098 13 5.44898 13 6.00098V9.001L18.293 3.70798C18.684 3.31698 19.316 3.31698 19.707 3.70798C20.098 4.09898 20.098 4.724 19.707 5.115L19.293 4.707ZM4.707 19.293L10 14.001H7C6.448 14.001 6 13.553 6 13.001C6 12.449 6.448 12.001 7 12.001H12C12.552 12.001 13 12.449 13 13.001V18.001C13 18.553 12.552 19.001 12 19.001C11.448 19.001 11 18.553 11 18.001V15.001L5.707 20.293C5.316 20.684 4.684 20.684 4.293 20.293C3.902 19.902 3.902 19.684 4.293 19.293H4.707Z" fill="#2a9bdf"/>
    <mask id="mask0" mask-type="alpha" maskUnits="userSpaceOnUse" x="3" y="3" width="18" height="18">
        <path fill-rule="evenodd" clip-rule="evenodd" d="M19.707 19.293L14 14V17C14 17.552 13.552 18 13 18C12.448 18 12 17.552 12 17V12H17C17.552 12 18 12.448 18 13C18 13.552 17.552 14 17 14H14L19.293 19.293C19.684 19.684 19.684 20.316 19.293 20.707C18.902 21.098 18.276 21.098 17.885 20.707L19.707 19.293ZM4.293 4.707L10 10V7C10 6.448 10.448 6 11 6C11.552 6 12 6.448 12 7V12H7C6.448 12 6 11.552 6 11C6 10.448 6.448 10 7 10H10L4.707 4.707C4.316 4.316 4.316 3.684 4.707 3.293C5.098 2.902 5.724 2.902 6.115 3.293L4.293 4.707Z" fill="white"/>
    </mask>
    <g mask="url(#mask0)">
        <rect width="24" height="24" fill="#2a9bdf"/>
    </g>
</svg>
