<svg width="16" height="17" viewBox="0 0 16 17" fill="none" xmlns="http://www.w3.org/2000/svg">
    <path fill-rule="evenodd" clip-rule="evenodd" d="M10.8333 8C10.8333 7.83333 10.7713 7.66667 10.6466 7.52L6.47997 3.35333C6.0893 2.96267 5.45797 2.96267 5.0673 3.35333C4.67664 3.744 4.67664 4.37533 5.0673 4.766L8.46797 8.16667L5.0673 11.5673C4.67664 11.958 4.67664 12.5893 5.0673 12.98C5.45797 13.3707 6.0893 13.3707 6.47997 12.98L10.6466 8.81333C10.7713 8.66667 10.8333 8.5 10.8333 8.33333V8Z" fill="#2a9bdf"/>
    <mask id="mask0" mask-type="alpha" maskUnits="userSpaceOnUse" x="4" y="3" width="7" height="11">
        <path fill-rule="evenodd" clip-rule="evenodd" d="M10.8333 8.5C10.8333 8.33333 10.7713 8.16667 10.6466 8.02L6.47997 3.85333C6.0893 3.46267 5.45797 3.46267 5.0673 3.85333C4.67664 4.244 4.67664 4.87533 5.0673 5.266L8.46797 8.66667L5.0673 12.0673C4.67664 12.458 4.67664 13.0893 5.0673 13.48C5.45797 13.8707 6.0893 13.8707 6.47997 13.48L10.6466 9.31333C10.7713 9.16667 10.8333 9 10.8333 8.83333V8.5Z" fill="white"/>
    </mask>
    <g mask="url(#mask0)">
        <rect y="0.5" width="16" height="16" fill="#2a9bdf"/>
    </g>
</svg>
