<svg width="16" height="16" viewBox="0 0 16 16" fill="none" xmlns="http://www.w3.org/2000/svg">
<path fill-rule="evenodd" clip-rule="evenodd" d="M3.33331 13.3333C3.33331 13.7013 3.63198 14 3.99998 14H12C12.368 14 12.6666 13.7013 12.6666 13.3333C12.6666 11.432 11.8906 9.652 10.5646 8.326C9.23998 6.99867 7.46132 6.22267 5.55865 6.22267C5.19065 6.22267 4.89198 6.52133 4.89198 6.88933C4.89198 7.25733 5.19065 7.556 5.55865 7.556C7.03198 7.556 8.44132 8.12 9.49132 9.172C10.5413 10.2227 11.1066 11.632 11.1066 13.1053L4.89198 13.1053C4.89198 11.632 5.45732 10.2227 6.50732 9.172C7.55732 8.12 8.96665 7.556 10.4393 7.556C10.8073 7.556 11.106 7.25733 11.106 6.88933C11.106 6.52133 10.8073 6.22267 10.4393 6.22267C8.53665 6.22267 6.75798 6.99867 5.43198 8.326C4.10598 9.652 3.33331 11.432 3.33331 13.3333Z" fill="#2a9bdf"/>
<path fill-rule="evenodd" clip-rule="evenodd" d="M8.00001 8C9.47201 8 10.6667 6.80533 10.6667 5.33333C10.6667 3.86133 9.47201 2.66667 8.00001 2.66667C6.52801 2.66667 5.33334 3.86133 5.33334 5.33333C5.33334 6.80533 6.52801 8 8.00001 8ZM8.00001 6.66667C7.36868 6.66667 6.86668 6.16467 6.86668 5.53333C6.86668 4.902 7.36868 4.4 8.00001 4.4C8.63135 4.4 9.13335 4.902 9.13335 5.53333C9.13335 6.16467 8.63135 6.66667 8.00001 6.66667Z" fill="#2a9bdf"/>
<mask id="mask0" mask-type="alpha" maskUnits="userSpaceOnUse" x="3" y="2" width="10" height="12">
<path fill-rule="evenodd" clip-rule="evenodd" d="M3.33331 13.3333C3.33331 13.7013 3.63198 14 3.99998 14H12C12.368 14 12.6666 13.7013 12.6666 13.3333C12.6666 11.432 11.8906 9.652 10.5646 8.326C9.23998 6.99867 7.46132 6.22267 5.55865 6.22267C5.19065 6.22267 4.89198 6.52133 4.89198 6.88933C4.89198 7.25733 5.19065 7.556 5.55865 7.556C7.03198 7.556 8.44132 8.12 9.49132 9.172C10.5413 10.2227 11.1066 11.632 11.1066 13.1053L4.89198 13.1053C4.89198 11.632 5.45732 10.2227 6.50732 9.172C7.55732 8.12 8.96665 7.556 10.4393 7.556C10.8073 7.556 11.106 7.25733 11.106 6.88933C11.106 6.52133 10.8073 6.22267 10.4393 6.22267C8.53665 6.22267 6.75798 6.99867 5.43198 8.326C4.10598 9.652 3.33331 11.432 3.33331 13.3333Z" fill="white"/>
<path fill-rule="evenodd" clip-rule="evenodd" d="M8.00001 8C9.47201 8 10.6667 6.80533 10.6667 5.33333C10.6667 3.86133 9.47201 2.66667 8.00001 2.66667C6.52801 2.66667 5.33334 3.86133 5.33334 5.33333C5.33334 6.80533 6.52801 8 8.00001 8ZM8.00001 6.66667C7.36868 6.66667 6.86668 6.16467 6.86668 5.53333C6.86668 4.902 7.36868 4.4 8.00001 4.4C8.63135 4.4 9.13335 4.902 9.13335 5.53333C9.13335 6.16467 8.63135 6.66667 8.00001 6.66667Z" fill="white"/>
</mask>
<g mask="url(#mask0)">
<rect width="16" height="16" fill="#2a9bdf"/>
</g>
</svg>
