<svg width="16" height="16" viewBox="0 0 16 16" fill="none" xmlns="http://www.w3.org/2000/svg">
<path fill-rule="evenodd" clip-rule="evenodd" d="M8.66667 6.66667H7.99999V6C7.99999 5.63333 7.70132 5.33333 7.33332 5.33333C6.96532 5.33333 6.66666 5.63333 6.66666 6V6.66667H5.99999C5.63332 6.66667 5.33332 6.96533 5.33332 7.33333C5.33332 7.70133 5.63332 8 5.99999 8H6.66666V8.66667C6.66666 9.03467 6.96532 9.33333 7.33332 9.33333C7.70132 9.33333 7.99999 9.03467 7.99999 8.66667V8H8.66667C9.03466 8 9.33332 7.70133 9.33332 7.33333C9.33332 6.96533 9.03466 6.66667 8.66667 6.66667ZM3.33331 7.33333C3.33331 5.128 5.12798 3.33333 7.33331 3.33333C9.53865 3.33333 11.3333 5.128 11.3333 7.33333C11.3333 9.53867 9.53865 11.3333 7.33331 11.3333C5.12798 11.3333 3.33331 9.53867 3.33331 7.33333ZM13.8047 12.862L11.5413 10.598C12.2433 9.69533 12.6666 8.564 12.6666 7.33333C12.6666 4.38933 10.2773 2 7.33331 2C4.38931 2 1.99998 4.38933 1.99998 7.33333C1.99998 10.2773 4.38931 12.6667 7.33331 12.6667C8.56398 12.6667 9.69531 12.2433 10.598 11.5413L12.862 13.8047C13.0186 13.9613 13.2253 14.04 13.4333 14.04C13.6413 14.04 13.848 13.9613 14.0047 13.8047C14.318 13.4913 14.318 12.9847 14.0047 12.6713L13.8047 12.862Z" fill="#2a9bdf"/>
<mask id="mask0" mask-type="alpha" maskUnits="userSpaceOnUse" x="1" y="2" width="14" height="13">
<path fill-rule="evenodd" clip-rule="evenodd" d="M8.66667 6.66667H7.99999V6C7.99999 5.63333 7.70132 5.33333 7.33332 5.33333C6.96532 5.33333 6.66666 5.63333 6.66666 6V6.66667H5.99999C5.63332 6.66667 5.33332 6.96533 5.33332 7.33333C5.33332 7.70133 5.63332 8 5.99999 8H6.66666V8.66667C6.66666 9.03467 6.96532 9.33333 7.33332 9.33333C7.70132 9.33333 7.99999 9.03467 7.99999 8.66667V8H8.66667C9.03466 8 9.33332 7.70133 9.33332 7.33333C9.33332 6.96533 9.03466 6.66667 8.66667 6.66667ZM3.33331 7.33333C3.33331 5.128 5.12798 3.33333 7.33331 3.33333C9.53865 3.33333 11.3333 5.128 11.3333 7.33333C11.3333 9.53867 9.53865 11.3333 7.33331 11.3333C5.12798 11.3333 3.33331 9.53867 3.33331 7.33333ZM13.8047 12.862L11.5413 10.598C12.2433 9.69533 12.6666 8.564 12.6666 7.33333C12.6666 4.38933 10.2773 2 7.33331 2C4.38931 2 1.99998 4.38933 1.99998 7.33333C1.99998 10.2773 4.38931 12.6667 7.33331 12.6667C8.56398 12.6667 9.69531 12.2433 10.598 11.5413L12.862 13.8047C13.0186 13.9613 13.2253 14.04 13.4333 14.04C13.6413 14.04 13.848 13.9613 14.0047 13.8047C14.318 13.4913 14.318 12.9847 14.0047 12.6713L13.8047 12.862Z" fill="white"/>
</mask>
<g mask="url(#mask0)">
<rect width="16" height="16" fill="#2a9bdf"/>
</g>
</svg>
