<svg width="16" height="16" viewBox="0 0 16 16" fill="none" xmlns="http://www.w3.org/2000/svg">
<path fill-rule="evenodd" clip-rule="evenodd" d="M10.9213 9.33341H5.84263L4.75063 5.33341H12.9213L10.9213 9.33341ZM14.0553 4.63208C13.8106 4.23608 13.3866 4.00008 12.9213 4.00008H4.38796L3.97663 2.49141C3.8973 2.20141 3.63396 2.00008 3.3333 2.00008H1.99996C1.6333 2.00008 1.3333 2.29875 1.3333 2.66675C1.3333 3.03475 1.6333 3.33341 1.99996 3.33341H2.82396L4.69063 10.1754C4.76996 10.4654 5.0333 10.6667 5.3333 10.6667H11.3333C11.586 10.6667 11.8166 10.5241 11.9299 10.2981L14.1139 5.92941C14.3226 5.51275 14.3006 5.02808 14.0553 4.63208ZM5.00004 12C4.44804 12 4.00004 12.448 4.00004 13C4.00004 13.552 4.44804 14 5.00004 14C5.55204 14 6.00004 13.552 6.00004 13C6.00004 12.448 5.55204 12 5.00004 12ZM10.6667 13C10.6667 12.448 11.1147 12 11.6667 12C12.2187 12 12.6667 12.448 12.6667 13C12.6667 13.552 12.2187 14 11.6667 14C11.1147 14 10.6667 13.5527 10.6667 13Z" fill="#2a9bdf"/>
<mask id="mask0" mask-type="alpha" maskUnits="userSpaceOnUse" x="1" y="2" width="14" height="12">
<path fill-rule="evenodd" clip-rule="evenodd" d="M10.9213 9.33341H5.84263L4.75063 5.33341H12.9213L10.9213 9.33341ZM14.0553 4.63208C13.8106 4.23608 13.3866 4.00008 12.9213 4.00008H4.38796L3.97663 2.49141C3.8973 2.20141 3.63396 2.00008 3.3333 2.00008H1.99996C1.6333 2.00008 1.3333 2.29875 1.3333 2.66675C1.3333 3.03475 1.6333 3.33341 1.99996 3.33341H2.82396L4.69063 10.1754C4.76996 10.4654 5.0333 10.6667 5.3333 10.6667H11.3333C11.586 10.6667 11.8166 10.5241 11.9299 10.2981L14.1139 5.92941C14.3226 5.51275 14.3006 5.02808 14.0553 4.63208ZM5.00004 12C4.44804 12 4.00004 12.448 4.00004 13C4.00004 13.552 4.44804 14 5.00004 14C5.55204 14 6.00004 13.552 6.00004 13C6.00004 12.448 5.55204 12 5.00004 12ZM10.6667 13C10.6667 12.448 11.1147 12 11.6667 12C12.2187 12 12.6667 12.448 12.6667 13C12.6667 13.552 12.2187 14 11.6667 14C11.1147 14 10.6667 13.5527 10.6667 13Z" fill="white"/>
</mask>
<g mask="url(#mask0)">
<rect width="16" height="16" fill="#2a9bdf"/>
</g>
</svg>
