<svg width="16" height="17" viewBox="0 0 16 17" fill="none" xmlns="http://www.w3.org/2000/svg">
<path fill-rule="evenodd" clip-rule="evenodd" d="M8 10.8333C7.83333 10.8333 7.66667 10.7713 7.53067 10.6353L4.86333 7.968C4.606 7.71067 4.606 7.28867 4.86333 7.03134C5.12067 6.774 5.54267 6.774 5.79933 7.03134L7.99933 9.23134L10.208 7.02267C10.4687 6.762 10.8893 6.76867 11.1493 7.02934C11.4093 7.28934 11.4027 7.71067 11.1427 7.97134L8.46867 10.6453C8.33333 10.7713 8.16667 10.8333 8 10.8333Z" fill="#2a9bdf"/>
<mask id="mask0" mask-type="alpha" maskUnits="userSpaceOnUse" x="4" y="6" width="8" height="5">
<path fill-rule="evenodd" clip-rule="evenodd" d="M8 10.8333C7.83333 10.8333 7.66667 10.7713 7.53067 10.6353L4.86333 7.968C4.606 7.71067 4.606 7.28867 4.86333 7.03134C5.12067 6.774 5.54267 6.774 5.79933 7.03134L7.99933 9.23134L10.208 7.02267C10.4687 6.762 10.8893 6.76867 11.1493 7.02934C11.4093 7.28934 11.4027 7.71067 11.1427 7.97134L8.46867 10.6453C8.33333 10.7713 8.16667 10.8333 8 10.8333Z" fill="white"/>
</mask>
<g mask="url(#mask0)">
<rect y="0.5" width="16" height="16" fill="#2a9bdf"/>
</g>
</svg>
