<svg width="48" height="48" viewBox="0 0 48 48" fill="none" xmlns="http://www.w3.org/2000/svg">
<path fill-rule="evenodd" clip-rule="evenodd" d="M23.9996 42C23.4676 42 22.9516 41.79 22.5836 41.422L8.25557 27.094C4.30957 23.148 4.30957 16.65 8.25557 12.704C12.2016 8.758 18.6996 8.758 22.6456 12.704L23.9996 14.058L25.3536 12.704C29.2996 8.758 35.7976 8.758 39.7436 12.704C43.6896 16.65 43.6896 23.148 39.7436 27.094L25.4156 41.422C25.0476 41.79 24.5316 42 23.9996 42Z" fill="#2a9bdf"/>
<mask id="mask0" mask-type="alpha" maskUnits="userSpaceOnUse" x="5" y="9" width="38" height="33">
<path fill-rule="evenodd" clip-rule="evenodd" d="M23.9996 42C23.4676 42 22.9516 41.79 22.5836 41.422L8.25557 27.094C4.30957 23.148 4.30957 16.65 8.25557 12.704C12.2016 8.758 18.6996 8.758 22.6456 12.704L23.9996 14.058L25.3536 12.704C29.2996 8.758 35.7976 8.758 39.7436 12.704C43.6896 16.65 43.6896 23.148 39.7436 27.094L25.4156 41.422C25.0476 41.79 24.5316 42 23.9996 42Z" fill="white"/>
</mask>
<g mask="url(#mask0)">
<rect width="48" height="48" fill="#2a9bdf"/>
</g>
</svg>
